{
	"asset":{
		"copyright":"Alexis",
		"generator":"Khronos glTF Blender I/O v4.3.47",
		"version":"2.0"
	},
	"scene":0,
	"scenes":[
		{
			"name":"Scene",
			"nodes":[
				0,
				1
			]
		}
	],
	"nodes":[
		{
			"mesh":0,
			"name":"Cube",
			"rotation":[
				-0.048184584826231,
				0.27388060092926025,
				0.16643710434436798,
				0.946026623249054
			],
			"scale":[
				20.634910583496094,
				20.634916305541992,
				20.634912490844727
			],
			"translation":[
				-7.748887062072754,
				15.46367073059082,
				0
			]
		},
		{
			"mesh":1,
			"name":"Cylinder",
			"rotation":[
				-0.06878174841403961,
				0.39095452427864075,
				0.15903502702713013,
				0.9039532542228699
			],
			"scale":[
				8.247652053833008,
				8.247651100158691,
				8.247652053833008
			],
			"translation":[
				-0.251558780670166,
				-5.18418025970459,
				0
			]
		}
	],
	"materials":[
		{
			"doubleSided":true,
			"name":"noir",
			"pbrMetallicRoughness":{
				"baseColorFactor":[
					0.060198038816452026,
					0.060198038816452026,
					0.060198038816452026,
					1
				],
				"metallicFactor":0,
				"roughnessFactor":0.5
			}
		}
	],
	"meshes":[
		{
			"name":"Cube.001",
			"primitives":[
				{
					"attributes":{
						"POSITION":0,
						"NORMAL":1,
						"TEXCOORD_0":2
					},
					"indices":3,
					"material":0
				}
			]
		},
		{
			"name":"Mesh",
			"primitives":[
				{
					"attributes":{
						"POSITION":4,
						"NORMAL":5,
						"TEXCOORD_0":6
					},
					"indices":7,
					"material":0
				}
			]
		}
	],
	"accessors":[
		{
			"bufferView":0,
			"componentType":5126,
			"count":926,
			"max":[
				0.7934473156929016,
				1.3930481672286987,
				0.8202804327011108
			],
			"min":[
				-0.7934473156929016,
				-0.8209447860717773,
				-0.8202804327011108
			],
			"type":"VEC3"
		},
		{
			"bufferView":1,
			"componentType":5126,
			"count":926,
			"type":"VEC3"
		},
		{
			"bufferView":2,
			"componentType":5126,
			"count":926,
			"type":"VEC2"
		},
		{
			"bufferView":3,
			"componentType":5123,
			"count":4944,
			"type":"SCALAR"
		},
		{
			"bufferView":4,
			"componentType":5126,
			"count":1096,
			"max":[
				0.7996871471405029,
				1.309091329574585,
				0.7996872663497925
			],
			"min":[
				-0.7996872663497925,
				-1.9726355075836182,
				-0.7996872663497925
			],
			"type":"VEC3"
		},
		{
			"bufferView":5,
			"componentType":5126,
			"count":1096,
			"type":"VEC3"
		},
		{
			"bufferView":6,
			"componentType":5126,
			"count":1096,
			"type":"VEC2"
		},
		{
			"bufferView":7,
			"componentType":5123,
			"count":5040,
			"type":"SCALAR"
		}
	],
	"bufferViews":[
		{
			"buffer":0,
			"byteLength":11112,
			"byteOffset":0,
			"target":34962
		},
		{
			"buffer":0,
			"byteLength":11112,
			"byteOffset":11112,
			"target":34962
		},
		{
			"buffer":0,
			"byteLength":7408,
			"byteOffset":22224,
			"target":34962
		},
		{
			"buffer":0,
			"byteLength":9888,
			"byteOffset":29632,
			"target":34963
		},
		{
			"buffer":0,
			"byteLength":13152,
			"byteOffset":39520,
			"target":34962
		},
		{
			"buffer":0,
			"byteLength":13152,
			"byteOffset":52672,
			"target":34962
		},
		{
			"buffer":0,
			"byteLength":8768,
			"byteOffset":65824,
			"target":34962
		},
		{
			"buffer":0,
			"byteLength":10080,
			"byteOffset":74592,
			"target":34963
		}
	],
	"buffers":[
		{
			"byteLength":84672,
			"uri":"scene.bin"
		}
	]
}
